<?xml version="1.0" encoding="UTF-8"?>
<svg width="20px" height="20px" viewBox="0 0 20 20" version="1.1" xmlns="http://www.w3.org/2000/svg" xmlns:xlink="http://www.w3.org/1999/xlink">
    <title>形状</title>
    <g id="下载0326" stroke="none" stroke-width="1" fill="none" fill-rule="evenodd">
        <g id="01积分返佣-浏览器打开0417" transform="translate(-124, -779)" fill="#ffffff" fill-rule="nonzero">
            <g id="编组-9" transform="translate(37, 769)">
                <g id="编组-3" transform="translate(87, 5)">
                    <g id="编组" transform="translate(0, 5)">
                        <g transform="translate(-0, 0)" id="形状">
                            <path d="M20.0000034,10 C20.0000034,4.50999714 15.5533367,0.0416601298 10.0725004,0.0016601552 L10.0541801,0 L9.94584028,0 L9.92750044,0.0016601552 C4.44668361,0.0416601298 3.35991329e-06,4.50999714 3.35991329e-06,10 C-0.00141135899,11.7204182 0.443956127,13.4117257 1.29250592,14.9083304 C1.30084576,14.9224905 1.3041856,14.9383304 1.3125059,14.9533304 L1.36750587,15.0474905 C1.37584571,15.0616506 1.38668554,15.0724904 1.39500585,15.0866506 C3.13836412,18.0249886 6.34250272,19.9999873 10.0000034,19.9999873 C13.6583379,19.9999873 16.8616757,18.0249886 18.6049949,15.0858303 C18.6133348,15.0716506 18.6249949,15.0608303 18.6341746,15.0458303 L18.6874949,14.9533304 C18.6958347,14.9391507 18.6999949,14.9233304 18.7074949,14.9091507 C19.5559684,13.4122172 20.0013255,11.7206666 20.0000034,10 L20.0000034,10 Z M11.3708394,0.871659604 C15.8124967,1.53581934 19.2308539,5.37581691 19.2308539,9.99999366 C19.2308539,11.0716727 19.045854,12.0999923 18.7075144,13.0566519 L18.5900145,13.3733314 C18.4602969,13.2021803 18.2940413,13.0621138 18.1033546,12.9633316 L11.8991789,9.76415397 C11.8362318,9.25017353 11.5673824,8.78374684 11.1541794,8.47165479 L11.4858393,1.50083889 C11.4951566,1.2851434 11.4558539,1.07011335 11.3708394,0.871659604 L11.3708394,0.871659604 Z M10.0000004,8.84667408 C10.6358398,8.84667408 11.1541794,9.36333391 11.1541794,9.99999366 C11.1541794,10.6358331 10.6358398,11.1541531 10.0000004,11.1541531 C9.36276771,11.1536899 8.84630416,10.6372264 8.84584097,9.99999366 C8.84584097,9.36415422 9.36418049,8.84583424 10.0000004,8.84583424 L10.0000004,8.84667408 Z M8.62750127,0.871679135 C8.5431066,1.06997674 8.50437807,1.28471249 8.51418103,1.49999905 L8.84584097,8.47167432 C8.43278822,8.78389051 8.16397796,9.2502422 8.10084145,9.76415397 L1.89668522,12.9633316 C1.70000566,13.0641519 1.5383456,13.2058315 1.41084569,13.3741517 C0.986606762,12.2998112 0.768911379,11.1550634 0.769185676,9.99999366 C0.769185676,5.37665675 4.18584393,1.53665918 8.62750127,0.871679135 Z M10.0000004,19.2299683 C7.19317666,19.2297957 4.53939881,17.9506067 2.79084481,15.7549705 C3.00169524,15.7264808 3.20369237,15.651938 3.38250459,15.5366308 L9.24584072,11.7683519 C9.72754892,11.974209 10.2724714,11.974209 10.7541796,11.7683519 L16.618336,15.5358495 C16.8016758,15.6541698 17.0025155,15.7266697 17.2099958,15.7541697 C15.4615931,17.9506659 12.8074027,19.230523 10.0000004,19.2308472 L10.0000004,19.2299683 Z"></path>
                        </g>
                    </g>
                </g>
            </g>
        </g>
    </g>
</svg>